<svg width="73" height="73" viewBox="0 0 73 73" fill="none" xmlns="http://www.w3.org/2000/svg">
<path d="M65.0367 50.3089C62.4516 52.7162 59.7717 53.1845 59.5307 49.0796C59.3774 46.5259 59.8812 43.921 60.3632 41.4331C61.6922 34.5988 63.8391 27.9475 65.5259 21.2011C66.5556 17.0888 60.3121 15.3546 59.1875 19.4523C58.7713 20.9742 58.3478 22.5035 57.9242 24.0255C57.0552 26.9743 56.1132 29.9963 55.2661 33.0403C54.6674 34.9501 54.054 36.8525 53.3895 38.7404C51.2207 44.938 48.9861 51.2967 45.6781 57.0407C44.6485 58.8334 42.7938 60.3188 41.2018 59.6383C40.0481 59.1407 39.442 57.9187 39.442 56.009C39.4347 54.0992 40.6176 49.5479 41.4209 46.6576C43.3487 39.677 45.6563 32.8135 47.9492 25.9499C49.2928 21.9255 42.9544 20.1913 41.6108 24.2011C38.5073 33.4866 34.9656 42.9331 33.1473 52.5845C32.0154 58.5773 35.6374 67.4018 43.0128 66.2457C48.3289 65.4115 51.7391 59.8432 54.1781 54.465C55.0033 56.1407 56.2812 57.5309 58.1652 58.3212C62.4005 60.1066 66.5775 57.8675 69.681 54.9772C72.7845 52.0723 68.1329 47.4186 65.0367 50.3089Z" fill="#B3CEC7"/>
<path d="M28.4007 61.4529C26.1078 62.1627 25.9764 60.8017 26.1662 58.5553C26.3853 56.0016 27.2032 53.4406 27.9188 50.9894C29.5472 45.4502 31.3801 39.9623 33.1327 34.4598C34.8268 29.1549 36.7839 23.8206 38.0983 18.4059C38.9746 14.7985 39.3324 10.2911 36.6378 7.32035C30.1534 0.178771 23.1065 9.13501 19.3531 15.2302C18.5426 13.2546 17.104 11.6009 14.9644 10.6863C10.7291 8.87891 6.55212 11.0887 3.36829 13.8619C0.169859 16.6498 4.83605 21.2889 8.01257 18.5157C10.5246 16.3205 13.6354 15.8668 13.577 19.9059C13.5405 22.6718 12.6058 25.606 11.8829 28.2475C10.1449 34.6281 7.6913 40.7819 5.66125 47.0673C4.34682 51.1211 10.6122 52.7894 11.9997 48.8162C12.5912 47.1112 13.1973 45.399 13.8034 43.6941C14.6869 41.316 15.6217 38.894 16.4906 36.4501C18.4769 31.35 20.6603 26.3304 23.2964 21.523C24.107 20.0523 29.6203 9.47892 31.9205 11.9741C32.9282 13.0643 31.8329 16.3205 31.5043 17.5278C30.774 20.1767 29.9124 22.7962 29.0945 25.4158C26.0129 35.2793 21.8287 45.282 20.0104 55.4821C19.397 58.8919 19.0318 62.7847 21.4343 65.6164C23.8514 68.4628 26.765 68.8287 30.1533 67.7823C34.1769 66.553 32.4536 60.1944 28.4007 61.4529Z" fill="#B3CEC7"/>
</svg>
