<?xml version="1.0" standalone="no"?>
<!DOCTYPE svg PUBLIC "-//W3C//DTD SVG 20010904//EN"
 "http://www.w3.org/TR/2001/REC-SVG-20010904/DTD/svg10.dtd">
<svg version="1.0" xmlns="http://www.w3.org/2000/svg"
 width="700.000000pt" height="700.000000pt" viewBox="0 0 700.000000 700.000000"
 preserveAspectRatio="xMidYMid meet">
<metadata>
Created by potrace 1.14, written by Peter Selinger 2001-2017
</metadata>
<g transform="translate(0.000000,700.000000) scale(0.100000,-0.100000)"
fill="#000000" stroke="none">
<path d="M2870 6530 c-77 -23 -87 -27 -160 -63 -160 -79 -378 -274 -549 -490
-88 -111 -231 -315 -277 -392 l-26 -45 -34 66 c-184 359 -581 516 -975 384
-146 -49 -318 -149 -464 -269 -93 -76 -108 -92 -137 -146 -32 -57 -32 -173 0
-233 104 -196 357 -259 507 -127 79 69 191 135 265 155 124 34 209 -2 257
-109 19 -43 27 -245 12 -331 -5 -30 -12 -75 -15 -100 -25 -192 -223 -869 -414
-1420 -40 -113 -97 -277 -127 -365 -207 -595 -221 -647 -194 -742 14 -50 71
-121 121 -150 133 -78 311 -60 412 41 54 55 65 80 213 506 18 52 61 169 95
260 34 91 93 248 130 350 89 244 224 583 275 696 8 16 30 66 49 110 18 43 47
106 62 139 15 33 28 62 29 65 11 32 207 429 273 550 249 459 411 712 556 867
80 85 134 126 194 144 37 11 47 10 77 -4 95 -45 98 -198 10 -507 -20 -69 -38
-134 -40 -144 -3 -11 -11 -40 -19 -65 -8 -25 -27 -86 -42 -136 -15 -49 -29
-94 -30 -100 -1 -5 -48 -152 -104 -325 -55 -173 -107 -335 -114 -360 -8 -25
-60 -178 -116 -340 -240 -696 -349 -1027 -432 -1310 -41 -141 -147 -546 -154
-590 -3 -14 -11 -52 -19 -85 -7 -33 -16 -73 -19 -90 -3 -16 -14 -79 -25 -140
-29 -164 -29 -165 -37 -235 -9 -85 -9 -249 0 -325 40 -340 280 -613 586 -665
145 -24 388 12 493 73 212 125 189 468 -39 569 -55 24 -122 25 -216 3 -160
-38 -210 12 -202 201 8 197 47 388 149 729 19 66 51 174 71 240 19 66 39 131
44 145 5 14 34 106 65 205 121 384 251 789 458 1425 185 565 203 623 257 805
51 170 125 463 134 525 3 25 8 55 10 67 35 179 18 453 -38 607 -75 207 -260
394 -462 468 -78 28 -243 33 -324 8z"/>
<path d="M5871 5344 c-69 -20 -135 -73 -166 -133 -12 -24 -70 -211 -79 -256
-2 -11 -36 -130 -76 -265 -39 -135 -75 -258 -80 -275 -4 -16 -19 -68 -34 -115
-68 -227 -147 -498 -152 -519 -3 -14 -7 -27 -9 -31 -2 -4 -24 -69 -49 -146
-128 -399 -396 -1133 -496 -1359 -104 -236 -144 -323 -215 -462 -152 -296
-216 -388 -319 -457 -169 -112 -328 -58 -391 133 -25 77 -25 262 0 375 3 12 7
32 9 46 9 55 60 274 98 420 125 485 294 1035 606 1970 78 236 95 295 94 345 0
113 -57 195 -171 248 -55 26 -76 30 -145 31 -98 0 -170 -29 -229 -91 -46 -48
-60 -74 -92 -167 -13 -39 -94 -278 -180 -531 -86 -253 -167 -494 -180 -535
-13 -41 -34 -109 -48 -150 -35 -105 -79 -249 -111 -355 -14 -49 -33 -110 -41
-135 -22 -67 -143 -529 -159 -605 -3 -11 -18 -83 -35 -160 -45 -208 -59 -308
-59 -430 -1 -460 232 -894 556 -1037 122 -55 308 -72 447 -43 353 75 657 377
938 933 74 147 94 180 102 166 102 -170 206 -269 348 -334 205 -93 404 -97
632 -13 87 32 251 119 283 150 7 7 17 13 21 13 4 0 16 8 27 18 10 9 42 35 69
56 74 58 142 131 167 179 32 59 31 172 -2 240 -57 119 -192 204 -315 198 -75
-3 -128 -29 -230 -112 -131 -107 -208 -144 -296 -144 -56 0 -71 4 -101 27 -39
30 -69 86 -88 165 -11 47 -15 276 -6 363 11 117 60 414 91 550 6 26 21 96 29
140 9 44 47 203 67 284 12 43 22 86 24 95 7 33 69 264 145 541 76 276 147 537
155 572 2 9 16 61 30 115 40 147 44 185 32 256 -31 170 -236 284 -416 231z"/>
</g>
</svg>
